<svg width="25" height="24" viewBox="0 0 25 24" fill="none">
  <path d="M8.5 4H21.5V6H8.5V4ZM5 6.5C4.60218 6.5 4.22064 6.34196 3.93934 6.06066C3.65804 5.77936 3.5 5.39782 3.5 5C3.5 4.60218 3.65804 4.22064 3.93934 3.93934C4.22064 3.65804 4.60218 3.5 5 3.5C5.39782 3.5 5.77936 3.65804 6.06066 3.93934C6.34196 4.22064 6.5 4.60218 6.5 5C6.5 5.39782 6.34196 5.77936 6.06066 6.06066C5.77936 6.34196 5.39782 6.5 5 6.5ZM5 13.5C4.60218 13.5 4.22064 13.342 3.93934 13.0607C3.65804 12.7794 3.5 12.3978 3.5 12C3.5 11.6022 3.65804 11.2206 3.93934 10.9393C4.22064 10.658 4.60218 10.5 5 10.5C5.39782 10.5 5.77936 10.658 6.06066 10.9393C6.34196 11.2206 6.5 11.6022 6.5 12C6.5 12.3978 6.34196 12.7794 6.06066 13.0607C5.77936 13.342 5.39782 13.5 5 13.5ZM5 20.4C4.60218 20.4 4.22064 20.242 3.93934 19.9607C3.65804 19.6794 3.5 19.2978 3.5 18.9C3.5 18.5022 3.65804 18.1206 3.93934 17.8393C4.22064 17.558 4.60218 17.4 5 17.4C5.39782 17.4 5.77936 17.558 6.06066 17.8393C6.34196 18.1206 6.5 18.5022 6.5 18.9C6.5 19.2978 6.34196 19.6794 6.06066 19.9607C5.77936 20.242 5.39782 20.4 5 20.4ZM8.5 11H21.5V13H8.5V11ZM8.5 18H21.5V20H8.5V18Z" fill="black"/>
</svg>