<svg width="25" height="24" viewBox="0 0 25 24" fill="none">
  <path d="M13.5 19.0003H19.5V9.97827L12.5 4.53427L5.5 9.97827V19.0003H11.5V13.0003H13.5V19.0003ZM21.5 20.0003C21.5 20.2655 21.3946 20.5198 21.2071 20.7074C21.0196 20.8949 20.7652 21.0003 20.5 21.0003H4.5C4.23478 21.0003 3.98043 20.8949 3.79289 20.7074C3.60536 20.5198 3.5 20.2655 3.5 20.0003V9.49027C3.49989 9.33788 3.53462 9.18749 3.60152 9.05057C3.66841 8.91365 3.76572 8.79384 3.886 8.70027L11.886 2.47827C12.0615 2.34172 12.2776 2.26758 12.5 2.26758C12.7224 2.26758 12.9385 2.34172 13.114 2.47827L21.114 8.70027C21.2343 8.79384 21.3316 8.91365 21.3985 9.05057C21.4654 9.18749 21.5001 9.33788 21.5 9.49027V20.0003Z" fill="black"/>
</svg>