<svg width="25" height="24" viewBox="0 0 25 24" fill="none">
  <path d="M3.8403 16.9998C3.41758 16.2688 3.08897 15.4873 2.8623 14.6738C3.35561 14.4229 3.7699 14.0404 4.05933 13.5687C4.34877 13.097 4.50207 12.5544 4.50228 12.0009C4.50248 11.4475 4.34959 10.9048 4.06051 10.4328C3.77143 9.96088 3.35742 9.57809 2.8643 9.32682C3.31634 7.69231 4.17703 6.19977 5.3653 4.98982C5.8294 5.29155 6.36792 5.45898 6.92128 5.4736C7.47464 5.48822 8.02126 5.34945 8.50063 5.07265C8.98001 4.79586 9.37346 4.39182 9.63743 3.90526C9.9014 3.41871 10.0256 2.8686 9.9963 2.31582C11.6384 1.89145 13.3615 1.89213 15.0033 2.31782C14.9743 2.87059 15.0987 3.42061 15.3629 3.90703C15.6271 4.39345 16.0207 4.7973 16.5001 5.07388C16.9796 5.35047 17.5262 5.48901 18.0796 5.47417C18.6329 5.45934 19.1713 5.2917 19.6353 4.98982C20.2143 5.57982 20.7283 6.25082 21.1603 6.99982C21.5933 7.74882 21.9173 8.52982 22.1383 9.32582C21.645 9.57672 21.2307 9.9592 20.9413 10.4309C20.6518 10.9027 20.4985 11.4453 20.4983 11.9987C20.4981 12.5522 20.651 13.0949 20.9401 13.5668C21.2292 14.0388 21.6432 14.4216 22.1363 14.6728C21.6843 16.3073 20.8236 17.7999 19.6353 19.0098C19.1712 18.7081 18.6327 18.5407 18.0793 18.526C17.526 18.5114 16.9794 18.6502 16.5 18.927C16.0206 19.2038 15.6272 19.6078 15.3632 20.0944C15.0992 20.5809 14.975 21.131 15.0043 21.6838C13.3622 22.1082 11.6391 22.1075 9.9973 21.6818C10.0264 21.1291 9.9019 20.579 9.63773 20.0926C9.37355 19.6062 8.97995 19.2023 8.50048 18.9258C8.02101 18.6492 7.47436 18.5106 6.92103 18.5255C6.3677 18.5403 5.82927 18.7079 5.3653 19.0098C4.7743 18.4068 4.2619 17.7314 3.8403 16.9998ZM9.5003 17.1958C10.5659 17.8105 11.3672 18.7968 11.7503 19.9658C12.2493 20.0128 12.7503 20.0138 13.2493 19.9668C13.6327 18.7977 14.4343 17.8113 15.5003 17.1968C16.5655 16.5805 17.8208 16.3793 19.0253 16.6318C19.3153 16.2238 19.5653 15.7888 19.7733 15.3338C18.9527 14.4173 18.4994 13.23 18.5003 11.9998C18.5003 10.7398 18.9703 9.56282 19.7733 8.66582C19.5638 8.21097 19.3128 7.77646 19.0233 7.36782C17.8196 7.62013 16.5651 7.4193 15.5003 6.80382C14.4347 6.18919 13.6335 5.20281 13.2503 4.03382C12.7513 3.98682 12.2503 3.98582 11.7513 4.03282C11.3679 5.20197 10.5663 6.18838 9.5003 6.80282C8.43509 7.41914 7.17978 7.62034 5.9753 7.36782C5.68587 7.77611 5.43544 8.21069 5.2273 8.66582C6.04788 9.58238 6.50119 10.7696 6.5003 11.9998C6.5003 13.2598 6.0303 14.4368 5.2273 15.3338C5.43678 15.7887 5.68784 16.2232 5.9773 16.6318C7.18102 16.3795 8.43551 16.5803 9.5003 17.1958ZM12.5003 14.9998C11.7047 14.9998 10.9416 14.6838 10.379 14.1211C9.81637 13.5585 9.5003 12.7955 9.5003 11.9998C9.5003 11.2042 9.81637 10.4411 10.379 9.8785C10.9416 9.31589 11.7047 8.99982 12.5003 8.99982C13.296 8.99982 14.059 9.31589 14.6216 9.8785C15.1842 10.4411 15.5003 11.2042 15.5003 11.9998C15.5003 12.7955 15.1842 13.5585 14.6216 14.1211C14.059 14.6838 13.296 14.9998 12.5003 14.9998ZM12.5003 12.9998C12.7655 12.9998 13.0199 12.8945 13.2074 12.7069C13.3949 12.5194 13.5003 12.265 13.5003 11.9998C13.5003 11.7346 13.3949 11.4803 13.2074 11.2927C13.0199 11.1052 12.7655 10.9998 12.5003 10.9998C12.2351 10.9998 11.9807 11.1052 11.7932 11.2927C11.6057 11.4803 11.5003 11.7346 11.5003 11.9998C11.5003 12.265 11.6057 12.5194 11.7932 12.7069C11.9807 12.8945 12.2351 12.9998 12.5003 12.9998Z" fill="black"/>
</svg>