<svg width="90" height="90" viewBox="0 0 90 90" fill="none" xmlns="http://www.w3.org/2000/svg">
<path d="M24.5455 57.2727V32.7273V0H0V32.7273V57.2727V65.4545V90H24.5455H57.2727V65.4545H24.5455V57.2727Z" fill="white"/>
<path d="M81.8155 0H65.4519H32.7246V24.5455H65.4519V32.7273V40.9091V65.4545V81.8182V90H89.9973V81.8182V65.4545V40.9091V32.7273V0H81.8155Z" fill="white"/>
<path d="M44.9973 57.272C51.7754 57.272 57.2701 51.7773 57.2701 44.9993C57.2701 38.2213 51.7754 32.7266 44.9973 32.7266C38.2193 32.7266 32.7246 38.2213 32.7246 44.9993C32.7246 51.7773 38.2193 57.272 44.9973 57.272Z" fill="white"/>
</svg>
