<svg width="132" height="32" viewBox="0 0 132 32" fill="none" xmlns="http://www.w3.org/2000/svg">
<g clip-path="url(#clip0_6556_6138)">
<path d="M129.501 0H2.00094C0.89585 0 0 0.89585 0 2.00094V29.9991C0 31.1042 0.89585 32 2.00094 32H129.501C130.606 32 131.502 31.1042 131.502 29.9991V2.00094C131.502 0.89585 130.606 0 129.501 0Z" fill="#F3F3F3"/>
<path d="M67.7672 17.0929C67.7672 15.8723 67.3871 15.132 66.1515 15.132C65.166 15.132 64.1005 16.1175 64.1005 17.4331L64.0855 17.303L64.1005 21.0097H63.05L63.01 11.3452H64.0605L64.0755 15.3021C64.5207 14.7218 65.2211 14.1165 66.2165 14.1165C67.8473 14.1165 68.8478 15.182 68.8478 16.8528V21.0097H67.7672V17.0929ZM60.7439 21.0498C59.4283 21.0498 58.718 19.7742 58.718 18.5786V15.237H57.6925V14.2266C58.5729 14.2266 58.718 13.8564 58.718 12.7259H59.7985V14.2266H61.6944V15.237H59.7985V18.4435C59.7985 19.1289 60.1937 19.9843 60.824 19.9843L61.6894 19.9993V21.0097L60.7439 21.0498ZM55.4415 12.8159V11.6053H56.522V12.8159H55.4415ZM55.4415 21.0097V14.2266H56.522V21.0097H55.4415ZM49.4687 20.9947L47.4427 13.5512L45.4168 20.9947H43.3808L40.8296 11.5903H42.0252L44.2362 19.9793H44.6164L46.8524 11.5903H48.113L50.3241 19.9793H50.7043L52.9403 11.5903H54.0708L51.5046 20.9947H49.4687ZM35.282 21.0498C33.9664 21.0498 33.2561 19.7742 33.2561 18.5786V15.237H32.2306V14.2266C33.111 14.2266 33.2561 13.8564 33.2561 12.7259H34.3366V14.2266H36.2325V15.237H34.3366V18.4435C34.3366 19.1289 34.7318 19.9843 35.3621 19.9843L36.2275 19.9993V21.0097L35.282 21.0498ZM30.1496 21.0097V11.3452H31.2151V21.0097H30.1496ZM27.3083 12.8159V11.6053H28.3888V12.8159H27.3083ZM27.3083 21.0097V14.2266H28.3888V21.0097H27.3083ZM22.1859 21.1148C20.5551 21.1148 19.5546 20.0493 19.5546 18.3785V14.2216H20.6352V18.1384C20.6352 19.359 21.0153 20.0993 22.2509 20.0993C23.2364 20.0993 24.3019 19.1139 24.3019 17.7982V14.2216H25.3824V21.0047H24.3019V19.9542C23.8567 20.5345 23.1713 21.1098 22.1859 21.1098V21.1148ZM12.4313 20.0093H15.2826C16.2831 20.0093 16.8734 19.5641 16.8734 18.4435C16.8734 17.393 16.3331 16.7978 15.3227 16.7978H12.4313V20.0043V20.0093ZM12.4163 15.8123L15.2326 15.8273C16.113 15.8273 16.7183 15.3271 16.7183 14.2216C16.7183 13.116 16.1681 12.6058 15.1526 12.6058H12.4313L12.4163 15.8123ZM11.3008 21.0047V11.6153H15.1926C16.6783 11.6153 17.8639 12.3257 17.8639 14.1665C17.8639 15.3621 17.2186 15.8773 16.5332 16.2175L16.5482 16.2825C17.2986 16.5727 18.0489 17.283 18.0489 18.4636C18.0489 20.3845 16.7733 20.9997 15.4577 20.9997H11.3008V21.0047Z" fill="black"/>
<path d="M94.3846 8.00366H93.4841H91.8184V9.7945H93.4841V23.7911H95.285V8.00366H94.3846Z" fill="black"/>
<path d="M99.262 17.2332C99.5271 15.3323 100.683 13.9867 102.754 13.9867C104.825 13.9867 105.91 15.3123 106.175 17.2332H99.262ZM108.106 18.2937C108.106 14.5169 105.995 12.2659 102.749 12.2659C99.5021 12.2659 97.3711 14.4069 97.3711 18.1836C97.3711 21.9604 99.4821 24.0114 102.749 24.0114C105.325 24.0114 107.261 22.5307 107.796 20.4797H105.795C105.35 21.4302 104.439 22.2706 102.749 22.2706C100.573 22.2706 99.4571 20.8999 99.237 18.939H108.106V18.2987V18.2937Z" fill="black"/>
<path d="M115.2 22.3106C112.864 22.3106 111.598 20.4997 111.598 18.1586C111.598 15.8175 112.864 13.9417 115.2 13.9417C117.536 13.9417 118.776 15.7725 118.776 18.1586C118.776 20.5447 117.556 22.3106 115.2 22.3106ZM115.2 12.2659C111.933 12.2659 109.822 14.4069 109.822 18.1836C109.822 21.9604 111.933 24.0114 115.2 24.0114C118.466 24.0114 120.557 22.0254 120.557 18.1836C120.557 14.3418 118.446 12.2659 115.2 12.2659Z" fill="black"/>
<path d="M86.3962 8.00366H84.6454H82.7295L79.543 17.233H81.4839L84.0601 9.70446H84.9955L87.5717 17.233H84.0201H81.4839L80.8836 18.9338H84.5953H88.152L89.8178 23.7911H91.8187L86.3962 8.00366Z" fill="black"/>
<path d="M77.2812 23.7911H79.2172L80.8829 18.9338H78.957L77.2812 23.7911Z" fill="black"/>
<path d="M77.6204 17.2332L77.0352 18.934H78.9561L79.5413 17.2332H77.6204Z" fill="black"/>
</g>
<defs>
<clipPath id="clip0_6556_6138">
<rect width="131.502" height="32" fill="white"/>
</clipPath>
</defs>
</svg>
