<svg width="40" height="40" viewBox="0 0 40 40" xmlns="http://www.w3.org/2000/svg">
<path d="M10.5721 29.428C13.0726 31.9285 16.4639 33.3333 20.0002 33.3333C23.5364 33.3333 26.9278 31.9285 29.4283 29.428C31.9287 26.9275 33.3335 23.5361 33.3335 19.9999C33.3335 16.4637 31.9287 13.0723 29.4283 10.5718C26.9278 8.07134 23.5364 6.66659 20.0002 6.66659V3.33325C22.1889 3.33325 24.3561 3.76435 26.3782 4.60193C28.4003 5.4395 30.2376 6.66716 31.7853 8.21481C33.3329 9.76245 34.5606 11.5998 35.3982 13.6219C36.2357 15.644 36.6668 17.8112 36.6668 19.9999C36.6668 24.4202 34.9109 28.6594 31.7853 31.785C28.6597 34.9106 24.4204 36.6666 20.0002 36.6666C17.8115 36.6666 15.6442 36.2355 13.6221 35.3979C11.6 34.5603 9.76269 33.3327 8.21505 31.785C5.08944 28.6594 3.3335 24.4202 3.3335 19.9999C3.3335 15.5796 5.08944 11.3404 8.21505 8.21481L10.5721 10.5718C8.07159 13.0723 6.66683 16.4637 6.66683 19.9999C6.66683 23.5361 8.07159 26.9275 10.5721 29.428Z"/>
</svg>
