<svg width="16" height="17" viewBox="0 0 16 17" fill="none" xmlns="http://www.w3.org/2000/svg">
<path d="M11.3337 5.83333C10.657 5.83333 9.54699 5.982 8.66699 6.354V4.5C8.66699 3.00333 5.91966 2.5 4.66699 2.5C3.41433 2.5 0.666992 3.00333 0.666992 4.5V10.5C0.666992 11.9967 3.41433 12.5 4.66699 12.5C5.34766 12.5 6.46766 12.3493 7.34966 11.9733C7.51833 13.36 10.1217 13.8333 11.3337 13.8333C12.5863 13.8333 15.3337 13.33 15.3337 11.8333V7.83333C15.3337 6.33667 12.5863 5.83333 11.3337 5.83333ZM11.3337 7.16667C12.5237 7.16667 13.6257 7.56333 13.943 7.83333C13.625 8.104 12.523 8.5 11.3337 8.5C10.1443 8.5 9.04166 8.104 8.72433 7.83333C9.04233 7.56333 10.1437 7.16667 11.3337 7.16667ZM14.0003 9.768C13.8063 10.0353 12.625 10.5 11.3337 10.5C10.0423 10.5 8.86099 10.0353 8.66699 9.768V9.31333C9.54699 9.68467 10.657 9.83333 11.3337 9.83333C12.0103 9.83333 13.1203 9.68467 14.0003 9.314V9.768ZM2.00033 7.98067C2.88033 8.35133 3.99033 8.5 4.66699 8.5C5.34366 8.5 6.45366 8.35133 7.33366 7.98067V8.43533C7.13966 8.702 5.95833 9.16667 4.66699 9.16667C3.37566 9.16667 2.19433 8.702 2.00033 8.43467V7.98067ZM2.00033 5.98067C2.88033 6.35133 3.99033 6.5 4.66699 6.5C5.34366 6.5 6.45366 6.35133 7.33366 5.98067V6.43533C7.13966 6.702 5.95833 7.16667 4.66699 7.16667C3.37566 7.16667 2.19433 6.702 2.00033 6.43467V5.98067ZM4.66699 3.83333C5.85699 3.83333 6.95899 4.23 7.27632 4.5C6.95899 4.77067 5.85633 5.16667 4.66699 5.16667C3.47766 5.16667 2.37566 4.77067 2.05766 4.5C2.37566 4.23 3.47699 3.83333 4.66699 3.83333ZM2.00033 10.442V9.98067C2.88033 10.3513 3.99033 10.5 4.66699 10.5C5.34366 10.5 6.45366 10.3513 7.33366 9.98067V10.442C7.12166 10.71 5.94433 11.1667 4.66699 11.1667C3.38966 11.1667 2.21233 10.71 2.00033 10.442ZM11.3337 12.5C10.0563 12.5 8.87899 12.0433 8.66699 11.7753V11.314C9.54699 11.6847 10.657 11.8333 11.3337 11.8333C12.0103 11.8333 13.1203 11.6847 14.0003 11.314V11.7753C13.7883 12.0433 12.611 12.5 11.3337 12.5Z" fill="white"/>
</svg>
