<svg xmlns="http://www.w3.org/2000/svg" width="25" height="24" viewBox="0 0 25 24" fill="none">
  <g clip-path="url(#clip0_7600_2418)">
    <path d="M3.5 2H19.505C20.607 2 21.5 2.898 21.5 3.99V20.01C21.5 21.109 20.607 22 19.505 22H3.5V2ZM7.5 4H5.5V20H7.5V4ZM9.5 20H19.5V4H9.5V20ZM11.5 16C11.5 15.2044 11.8161 14.4413 12.3787 13.8787C12.9413 13.3161 13.7044 13 14.5 13C15.2956 13 16.0587 13.3161 16.6213 13.8787C17.1839 14.4413 17.5 15.2044 17.5 16H11.5ZM14.5 12C13.9696 12 13.4609 11.7893 13.0858 11.4142C12.7107 11.0391 12.5 10.5304 12.5 10C12.5 9.46957 12.7107 8.96086 13.0858 8.58579C13.4609 8.21071 13.9696 8 14.5 8C15.0304 8 15.5391 8.21071 15.9142 8.58579C16.2893 8.96086 16.5 9.46957 16.5 10C16.5 10.5304 16.2893 11.0391 15.9142 11.4142C15.5391 11.7893 15.0304 12 14.5 12ZM22.5 6H24.5V10H22.5V6ZM22.5 12H24.5V16H22.5V12Z" fill="black"/>
  </g>
  <defs>
    <clipPath id="clip0_7600_2418">
      <rect width="24" height="24" fill="white" transform="translate(0.5)"/>
    </clipPath>
  </defs>
</svg>