<svg width="24" height="24" viewBox="0 0 24 24" fill="none" xmlns="http://www.w3.org/2000/svg">
<path d="M12.0007 6.70081H6.70154V1.40161L12.0007 6.70081ZM12.0007 6.70081V1.40161H17.2999L12.0007 6.70081ZM12.0007 17.2992H17.2999V22.5984L12.0007 17.2992ZM12.0007 17.2992V22.5984H6.70154L12.0007 17.2992ZM6.70154 12H1.40234V6.70081L6.70154 12ZM17.2999 12V6.70081H22.5991L17.2999 12ZM17.2999 12H22.5991V17.2992L17.2999 12ZM6.70154 12V17.2992H1.40234L6.70154 12ZM12.0007 9.35041V12H9.35114L12.0007 9.35041ZM14.6503 12H12.0007V9.35041L14.6503 12ZM12.0007 14.6496V12H14.6503L12.0007 14.6496ZM9.35114 12H12.0007V14.6496L9.35114 12Z" fill="#FEA644"/>
<path d="M1.40234 1.40161H6.70154V4.05121L1.40234 1.40161ZM22.5991 1.40161V6.70081H19.9495L22.5991 1.40161ZM22.5991 22.5984H17.2999V19.9488L22.5991 22.5984ZM1.40234 22.5984V17.2992H4.05194L1.40234 22.5984Z" fill="#484848"/>
</svg>
