
<svg width="64" height="64" viewBox="0 0 64 64" fill="none" >
  <g clipPath="url(#clip0_6676_6025)">
    <path d="M10.6673 10.6673H26.6673V5.33398H10.6673C7.72598 5.33398 5.33398 7.72598 5.33398 10.6673V26.6673H10.6673V10.6673Z" fill="#634CFF"/>
    <path d="M53.334 5.33398H37.334V10.6673H53.334V26.6673H58.6673V10.6673C58.6673 7.72598 56.2753 5.33398 53.334 5.33398Z" fill="#634CFF"/>
    <path d="M10.6673 37.334H5.33398V53.334C5.33398 56.2753 7.72598 58.6673 10.6673 58.6673H26.6673V53.334H10.6673V37.334Z" fill="#634CFF"/>
    <path d="M53.334 53.334H37.334V58.6673H53.334C56.2753 58.6673 58.6673 56.2753 58.6673 53.334V37.334H53.334V53.334Z" fill="#634CFF"/>
    <path d="M32.0013 16C26.1186 16 21.3346 20.784 21.3346 26.6667V29.3333H18.668V48H45.3346V29.3333H42.668V26.6667C42.668 20.784 37.884 16 32.0013 16ZM26.668 26.6667C26.668 23.728 29.06 21.3333 32.0013 21.3333C34.9426 21.3333 37.3346 23.728 37.3346 26.6667V29.3333H26.668V26.6667ZM40.0013 42.6667H24.0013V34.6667H40.0013V42.6667Z" fill="black"/>
  </g>
  <defs>
    <clipPath id="clip0_6676_6025">
      <rect width="64" height="64" fill="white"/>
    </clipPath>
  </defs>
</svg>
