<svg width="24" height="24" viewBox="0 0 24 24" fill="none" xmlns="http://www.w3.org/2000/svg">
<path d="M17.8817 19.2966C16.1229 20.4121 14.0824 21.0029 11.9997 20.9996C6.60766 20.9996 2.12166 17.1196 1.18066 11.9996C1.61069 9.6703 2.78229 7.54247 4.52066 5.93358L1.39166 2.80758L2.80666 1.39258L22.6057 21.1926L21.1907 22.6066L17.8817 19.2966ZM5.93466 7.34958C4.57567 8.58517 3.62898 10.2084 3.22266 11.9996C3.53496 13.366 4.16193 14.6407 5.05367 15.7222C5.94541 16.8036 7.07729 17.662 8.35922 18.2289C9.64114 18.7958 11.0377 19.0556 12.4378 18.9877C13.8378 18.9198 15.2026 18.5259 16.4237 17.8376L14.3957 15.8096C13.5324 16.3534 12.5099 16.5877 11.4959 16.474C10.4819 16.3604 9.5367 15.9055 8.81523 15.184C8.09376 14.4625 7.63889 13.5173 7.52523 12.5033C7.41156 11.4894 7.64585 10.4669 8.18966 9.60358L5.93466 7.34958ZM12.9137 14.3276L9.67166 11.0856C9.49373 11.5385 9.45185 12.0335 9.55117 12.5099C9.65049 12.9863 9.88668 13.4234 10.2308 13.7675C10.5749 14.1116 11.0119 14.3478 11.4883 14.4471C11.9647 14.5464 12.4597 14.5045 12.9127 14.3266L12.9137 14.3276ZM20.8067 16.5916L19.3757 15.1616C20.0441 14.2089 20.5201 13.1348 20.7767 11.9996C20.5049 10.8093 19.9939 9.68672 19.2748 8.70007C18.5557 7.71342 17.6435 6.88331 16.5935 6.26018C15.5436 5.63706 14.378 5.23395 13.1674 5.07534C11.9568 4.91674 10.7267 5.00596 9.55166 5.33758L7.97366 3.75958C9.22066 3.26958 10.5797 2.99958 11.9997 2.99958C17.3917 2.99958 21.8777 6.87958 22.8187 11.9996C22.5122 13.6653 21.8235 15.2372 20.8067 16.5916ZM11.7227 7.50758C12.3592 7.46824 12.9968 7.56464 13.5932 7.7904C14.1896 8.01615 14.7313 8.36609 15.1822 8.81703C15.6332 9.26797 15.9831 9.8096 16.2088 10.406C16.4346 11.0025 16.531 11.6401 16.4917 12.2766L11.7227 7.50758Z" fill="black"/>
</svg>
