<svg width="80" height="80" viewBox="0 0 80 80" fill="none" xmlns="http://www.w3.org/2000/svg">
<path fill-rule="evenodd" clip-rule="evenodd" d="M6.66699 16.667C6.66699 11.1427 11.1427 6.66699 16.667 6.66699H25.2937V13.3337H16.667C14.8246 13.3337 13.3337 14.8246 13.3337 16.667V25.2937H6.66699V16.667ZM43.3337 26.667V39.63C43.3337 44.0586 39.2553 46.667 35.5559 46.667H33.3337V40.0003H35.5559C36.0425 40.0003 36.3886 39.834 36.5642 39.6877C36.6219 39.6396 36.6522 39.6038 36.667 39.5823V26.667H43.3337ZM36.6795 39.5587C36.6801 39.5588 36.6788 39.5631 36.6741 39.5712C36.6754 39.5669 36.6766 39.5638 36.6776 39.5617C36.6785 39.5597 36.6793 39.5587 36.6795 39.5587ZM20.0003 26.9339V38.6006H26.667V26.9339H20.0003ZM53.3337 26.9339V38.6006H60.0003V26.9339H53.3337ZM48.45 51.5C43.7851 56.1649 36.2189 56.1649 31.554 51.5L26.84 56.214C34.1084 63.4824 45.8956 63.4824 53.164 56.214L48.45 51.5ZM73.3337 63.3337V54.707H66.667V63.3337C66.667 65.1761 65.1761 66.667 63.3337 66.667H54.707V73.3337H63.3337C68.858 73.3337 73.3337 68.858 73.3337 63.3337ZM6.66699 63.3337V54.707H13.3337V63.3337C13.3337 65.1761 14.8246 66.667 16.667 66.667H25.2937V73.3337H16.667C11.1427 73.3337 6.66699 68.858 6.66699 63.3337ZM63.3337 6.66699H54.707V13.3337H63.3337C65.1761 13.3337 66.667 14.8246 66.667 16.667V25.2937H73.3337V16.667C73.3337 11.1427 68.858 6.66699 63.3337 6.66699Z" fill="black"/>
</svg>
