<svg width="20" height="20" viewBox="0 0 20 20" fill="none" xmlns="http://www.w3.org/2000/svg">
<path fill-rule="evenodd" clip-rule="evenodd" d="M12.5003 12.4998C12.0403 12.4998 11.667 12.1273 11.667 11.6665V9.99984H2.50033C2.04033 9.99984 1.66699 9.62734 1.66699 9.1665V5.83317C1.66699 5.37234 2.04033 4.99984 2.50033 4.99984H7.50033V3.33317H5.00033V1.6665H11.667V3.33317H9.16699V4.99984H14.167C15.0862 4.99984 15.8337 5.7465 15.8337 6.6665V11.6665C15.8337 12.1273 15.4603 12.4998 15.0003 12.4998H12.5003ZM3.33366 6.6665V8.33317H12.5003C12.9603 8.33317 13.3337 8.70567 13.3337 9.1665V10.8332H14.167V6.6665H3.33366ZM13.3337 14.5832C13.3337 15.0434 12.9606 15.4165 12.5003 15.4165C12.0401 15.4165 11.667 15.0434 11.667 14.5832C11.667 14.1229 12.0401 13.7498 12.5003 13.7498C12.9606 13.7498 13.3337 14.1229 13.3337 14.5832ZM16.667 14.5832C16.667 15.0434 16.2939 15.4165 15.8337 15.4165C15.3734 15.4165 15.0003 15.0434 15.0003 14.5832C15.0003 14.1229 15.3734 13.7498 15.8337 13.7498C16.2939 13.7498 16.667 14.1229 16.667 14.5832ZM14.167 17.4998C14.6272 17.4998 15.0003 17.1267 15.0003 16.6665C15.0003 16.2063 14.6272 15.8332 14.167 15.8332C13.7068 15.8332 13.3337 16.2063 13.3337 16.6665C13.3337 17.1267 13.7068 17.4998 14.167 17.4998ZM11.667 16.6665C11.667 17.1267 11.2939 17.4998 10.8337 17.4998C10.3734 17.4998 10.0003 17.1267 10.0003 16.6665C10.0003 16.2063 10.3734 15.8332 10.8337 15.8332C11.2939 15.8332 11.667 16.2063 11.667 16.6665ZM17.5003 17.4998C17.9606 17.4998 18.3337 17.1267 18.3337 16.6665C18.3337 16.2063 17.9606 15.8332 17.5003 15.8332C17.0401 15.8332 16.667 16.2063 16.667 16.6665C16.667 17.1267 17.0401 17.4998 17.5003 17.4998Z" fill="white"/>
</svg>
