<svg width="16" height="16" viewBox="0 0 16 16" fill="none">
  <g clipPath="url(#clip0_6599_5948)">
    <path d="M2.84213 6.66658C3.43546 4.36992 5.51946 2.66659 7.99946 2.66659C10.3408 2.66659 12.3301 4.18458 13.0448 6.28725L11.3328 7.99992H15.3328V3.99992L14.0708 5.26192C13.0241 2.94925 10.6988 1.33325 7.99946 1.33325C4.78013 1.33325 2.0868 3.62725 1.4668 6.66658H2.84213Z" fill="#656565"/>
    <path d="M13.1567 9.33321C12.5627 11.6299 10.4787 13.3332 7.99935 13.3332C5.65802 13.3332 3.66868 11.8152 2.95402 9.71254L4.66602 7.99988H0.666016V11.9999L1.92802 10.7379C2.97468 13.0505 5.30002 14.6665 7.99935 14.6665C11.2187 14.6665 13.912 12.3725 14.532 9.33321H13.1567Z" fill="#656565"/>
  </g>
  <defs>
    <clipPath id="clip0_6599_5948">
      <rect width="16" height="16" fill="white" transform="translate(-0.000976562)"/>
    </clipPath>
  </defs>
</svg>