<svg width="20" height="20" viewBox="0 0 20 20" fill="none" xmlns="http://www.w3.org/2000/svg">
<path d="M10.0001 18.3337C5.39758 18.3337 1.66675 14.6028 1.66675 10.0003C1.66675 5.39783 5.39758 1.66699 10.0001 1.66699C14.6026 1.66699 18.3334 5.39783 18.3334 10.0003C18.3334 14.6028 14.6026 18.3337 10.0001 18.3337ZM8.09175 16.3895C7.26959 14.6456 6.79331 12.7588 6.68925 10.8337H3.38508C3.54724 12.1161 4.07835 13.3238 4.91389 14.3101C5.74943 15.2964 6.85343 16.0188 8.09175 16.3895ZM8.35842 10.8337C8.48425 12.8662 9.06508 14.7753 10.0001 16.4603C10.9603 14.7308 11.5213 12.8082 11.6418 10.8337H8.35842ZM16.6151 10.8337H13.3109C13.2069 12.7588 12.7306 14.6456 11.9084 16.3895C13.1467 16.0188 14.2507 15.2964 15.0863 14.3101C15.9218 13.3238 16.4529 12.1161 16.6151 10.8337ZM3.38508 9.16699H6.68925C6.79331 7.24181 7.26959 5.35506 8.09175 3.61116C6.85343 3.98189 5.74943 4.70429 4.91389 5.69057C4.07835 6.67686 3.54724 7.88458 3.38508 9.16699ZM8.35925 9.16699H11.6409C11.5207 7.19249 10.9601 5.26994 10.0001 3.54033C9.03982 5.26987 8.47888 7.19243 8.35842 9.16699H8.35925ZM11.9084 3.61116C12.7306 5.35506 13.2069 7.24181 13.3109 9.16699H16.6151C16.4529 7.88458 15.9218 6.67686 15.0863 5.69057C14.2507 4.70429 13.1467 3.98189 11.9084 3.61116Z" />
</svg>
