<svg width="13" height="15" viewBox="0 0 13 15" fill="none" xmlns="http://www.w3.org/2000/svg">
<path d="M12.3337 0.333252C12.5105 0.333252 12.68 0.40349 12.8051 0.528514C12.9301 0.653538 13.0003 0.823108 13.0003 0.999919V4.33325C13.0003 4.51006 12.9301 4.67963 12.8051 4.80466C12.68 4.92968 12.5105 4.99992 12.3337 4.99992H9.00033V13.6666C9.00033 13.8434 8.93009 14.013 8.80506 14.138C8.68004 14.263 8.51047 14.3333 8.33366 14.3333H5.66699C5.49018 14.3333 5.32061 14.263 5.19559 14.138C5.07056 14.013 5.00033 13.8434 5.00033 13.6666V4.99992H1.33366C1.15685 4.99992 0.987279 4.92968 0.862254 4.80466C0.73723 4.67963 0.666992 4.51006 0.666992 4.33325V2.74525C0.667058 2.62148 0.701581 2.50016 0.766694 2.3949C0.831807 2.28964 0.924938 2.20458 1.03566 2.14925L4.66699 0.333252H12.3337ZM9.00033 1.66659H4.98166L2.00033 3.15725V3.66659H6.33366V12.9999H7.66699V3.66659H9.00033V1.66659ZM11.667 1.66659H10.3337V3.66659H11.667V1.66659Z" fill="black"/>
</svg>
