<svg width="16" height="16" viewBox="0 0 16 16" fill="none" xmlns="http://www.w3.org/2000/svg">
<path fill-rule="evenodd" clip-rule="evenodd" d="M14.0003 1.32875C14.0003 0.963415 13.7043 0.666748 13.339 0.666748H1.32833C1.15325 0.668144 0.985743 0.73836 0.862001 0.862226C0.738259 0.986093 0.668212 1.15367 0.666992 1.32875V12.0047C0.666992 12.1802 0.736647 12.3485 0.860652 12.4726C0.984657 12.5967 1.15287 12.6666 1.32833 12.6667H6.00033V11.3334H3.88499L8.66699 6.55275L10.3337 6.33342L9.66699 5.66675L8.66699 4.66675L2.00033 11.3327V2.00008H12.667V5.60956H14.0003V1.32875ZM5.6098 3.72394C5.35975 3.47389 5.02061 3.33341 4.66699 3.33341C4.31337 3.33341 3.97423 3.47389 3.72418 3.72394C3.47413 3.97399 3.33366 4.31313 3.33366 4.66675C3.33366 5.02037 3.47413 5.35951 3.72418 5.60956C3.97423 5.85961 4.31337 6.00008 4.66699 6.00008C5.02061 6.00008 5.35975 5.85961 5.6098 5.60956C5.85985 5.35951 6.00033 5.02037 6.00033 4.66675C6.00033 4.31313 5.85985 3.97399 5.6098 3.72394ZM6.66699 11.0001C6.66699 8.61341 8.61366 6.66675 11.0003 6.66675C13.387 6.66675 15.3337 8.61341 15.3337 11.0001C15.3337 13.3867 13.387 15.3334 11.0003 15.3334C8.61366 15.3334 6.66699 13.3867 6.66699 11.0001ZM12.5803 10.6067H14.307C14.1537 9.27341 13.2203 8.18675 11.967 7.80675C12.0203 7.90675 12.067 8.00675 12.1137 8.12675C12.387 8.79341 12.547 9.66675 12.5803 10.6067ZM11.0037 14.3324C10.9747 14.3228 10.761 14.2334 10.507 13.6201C10.267 13.0334 10.127 12.2401 10.087 11.3867H11.9137C11.8803 12.2334 11.7337 13.0334 11.4937 13.6201C11.2458 14.2334 11.0326 14.3228 11.0037 14.3324ZM10.5137 8.37341C10.2737 8.96008 10.127 9.76008 10.0937 10.6067H10.1003H11.927C11.887 9.75341 11.747 8.96008 11.507 8.37341C11.2337 7.71341 11.007 7.66008 11.007 7.66008C11.007 7.66008 10.7803 7.71341 10.5137 8.37341ZM9.89366 8.12008C9.94032 8.00675 9.99366 7.90008 10.0403 7.80675L10.027 7.80008C8.78032 8.18008 7.84699 9.26675 7.68699 10.6001H9.42699C9.46033 9.66008 9.62033 8.78675 9.89366 8.12008ZM9.42033 11.3934H7.69366C7.84699 12.7267 8.78032 13.8134 10.0337 14.1934C9.98032 14.0934 9.93366 13.9934 9.88699 13.8734C9.61366 13.2067 9.45366 12.3334 9.42033 11.3934ZM11.967 14.1934L11.967 14.1934H11.9737C13.2203 13.8134 14.1537 12.7267 14.3137 11.3934H12.5803C12.547 12.3334 12.387 13.2067 12.1137 13.8734C12.067 13.9934 12.0137 14.1001 11.967 14.1934Z" fill="black"/>
</svg>
