<svg width="16" height="16" viewBox="0 0 16 16" fill="none" xmlns="http://www.w3.org/2000/svg">
<path fill-rule="evenodd" clip-rule="evenodd" d="M13.339 0.666748C13.7043 0.666748 14.0003 0.963415 14.0003 1.32875V5.60956H12.667V2.00008H2.00033V11.3327L8.66699 4.66675L9.66699 5.66675L10.3337 6.33342L9.33366 7.33342L8.66699 6.55275L3.88499 11.3334H7.33366V12.6667H1.32833C1.15287 12.6666 0.984657 12.5967 0.860652 12.4726C0.736647 12.3485 0.666992 12.1802 0.666992 12.0047V1.32875C0.668212 1.15367 0.738259 0.986093 0.862001 0.862226C0.985743 0.73836 1.15325 0.668144 1.32833 0.666748H13.339ZM4.66699 3.33341C5.02061 3.33341 5.35975 3.47389 5.6098 3.72394C5.85985 3.97399 6.00033 4.31313 6.00033 4.66675C6.00033 5.02037 5.85985 5.35951 5.6098 5.60956C5.35975 5.85961 5.02061 6.00008 4.66699 6.00008C4.31337 6.00008 3.97423 5.85961 3.72418 5.60956C3.47413 5.35951 3.33366 5.02037 3.33366 4.66675C3.33366 4.31313 3.47413 3.97399 3.72418 3.72394C3.97423 3.47389 4.31337 3.33341 4.66699 3.33341ZM14.667 10.0001C14.667 8.52942 13.4703 7.33342 12.0003 7.33342C10.5303 7.33342 9.33366 8.52942 9.33366 10.0001C8.96499 10.0001 8.66699 10.2987 8.66699 10.6667V14.6667C8.66699 15.0347 8.96499 15.3334 9.33366 15.3334H14.667C15.0357 15.3334 15.3337 15.0347 15.3337 14.6667V10.6667C15.3337 10.2987 15.0357 10.0001 14.667 10.0001ZM12.0003 8.66675C12.7363 8.66675 13.3337 9.26475 13.3337 10.0001H10.667C10.667 9.26475 11.2643 8.66675 12.0003 8.66675ZM10.0003 14.0001V11.3334H14.0003V14.0001H10.0003ZM12.667 12.6667C12.667 13.0349 12.3685 13.3334 12.0003 13.3334C11.6321 13.3334 11.3337 13.0349 11.3337 12.6667C11.3337 12.2986 11.6321 12.0001 12.0003 12.0001C12.3685 12.0001 12.667 12.2986 12.667 12.6667Z" fill="black"/>
</svg>
