<svg width="104" height="59" viewBox="0 0 104 59" fill="none">
  <path d="M35 0H43.7208V20.3604V23.2674H46.6396H55.3604V32H35V0Z" fill="#634CFF"/>
  <path d="M58.6278 32V11.6396V8.72083H55.7208H47V0H67.3604V32H58.6278Z" fill="#634CFF"/>
  <path d="M47 16.3604C47 18.7686 48.9522 20.7208 51.3604 20.7208C53.7686 20.7208 55.7208 18.7686 55.7208 16.3604C55.7208 13.9522 53.7686 12 51.3604 12C48.9522 12 47 13.9522 47 16.3604Z" fill="#634CFF"/>
  <path d="M97.8802 44.5H100.433V47.5182H103.046V49.626H100.433V54.2276C100.433 54.7554 100.542 55.1413 100.76 55.3854C100.984 55.6295 101.34 55.7516 101.829 55.7516C102.132 55.7516 102.505 55.6889 102.947 55.5635V57.612C102.782 57.6845 102.525 57.7472 102.175 57.8C101.825 57.8528 101.489 57.8792 101.166 57.8792C100.011 57.8792 99.1733 57.5559 98.6521 56.9094C98.1375 56.2628 97.8802 55.3293 97.8802 54.1089V49.626H96V47.5182H97.8802V44.5Z" fill="black"/>
  <path d="M86.5135 53.6651C86.5927 54.4568 86.883 55.0802 87.3844 55.5354C87.8858 55.9906 88.5752 56.2182 89.4526 56.2182C90.0595 56.2182 90.5939 56.1028 91.0557 55.8719C91.5175 55.6344 91.8738 55.3111 92.1245 54.9021H94.4995C94.13 55.8323 93.4901 56.6009 92.5797 57.2078C91.6759 57.8082 90.6335 58.1083 89.4526 58.1083C87.7637 58.1083 86.4311 57.6102 85.4547 56.6141C84.4849 55.6179 84 54.3446 84 52.7943C84 51.2637 84.4981 50.0003 85.4943 49.0042C86.4905 48.0014 87.767 47.5 89.324 47.5C90.8941 47.5 92.1707 47.9981 93.1536 48.9943C94.1432 49.9905 94.638 51.2703 94.638 52.8339V53.6651H86.5135ZM89.3734 49.3307C88.5752 49.3307 87.922 49.5682 87.4141 50.0432C86.9127 50.5116 86.6059 51.1582 86.4937 51.9828H92.2036C92.1245 51.1845 91.8342 50.5446 91.3328 50.063C90.8314 49.5748 90.1783 49.3307 89.3734 49.3307Z" fill="black"/>
  <path d="M79.5 57.7943V43H82.0531V57.7943H79.5Z" fill="black"/>
  <path d="M74.25 57.7943V43H76.8031V57.7943H74.25Z" fill="black"/>
  <path d="M71.2417 47.7474V57.8609H68.7974V56.1193C68.4741 56.6866 67.9859 57.1616 67.3328 57.5443C66.6797 57.9203 65.9375 58.1083 65.1062 58.1083C64.1299 58.1083 63.2491 57.8708 62.4641 57.3958C61.679 56.9208 61.072 56.2809 60.6432 55.476C60.2144 54.6712 60 53.7839 60 52.8141C60 51.8443 60.2144 50.9569 60.6432 50.1521C61.072 49.3406 61.679 48.6974 62.4641 48.2224C63.2491 47.7408 64.1299 47.5 65.1062 47.5C65.9639 47.5 66.7193 47.6913 67.3724 48.074C68.0321 48.45 68.4939 48.9217 68.7578 49.4891V47.7474H71.2417ZM63.4042 50.538C62.8368 51.1582 62.5531 51.9168 62.5531 52.8141C62.5531 53.7113 62.8335 54.4667 63.3943 55.0802C63.9616 55.6938 64.6939 56.0005 65.5911 56.0005C66.4686 56.0005 67.2042 55.7069 67.7979 55.1198C68.3917 54.5326 68.6885 53.7641 68.6885 52.8141C68.6885 51.8641 68.3884 51.0922 67.788 50.4984C67.1943 49.9047 66.462 49.6078 65.5911 49.6078C64.7005 49.6078 63.9715 49.9179 63.4042 50.538Z" fill="black"/>
  <path d="M54.2969 53.9922L57.137 43.75H59.7693L55.4151 57.9406H53.3271L49.7646 47.2234L46.1922 57.9406H44.1042L39.75 43.75H42.3823L45.2224 53.9922L48.7255 43.75H50.7937L54.2969 53.9922Z" fill="black"/>
  <path d="M31.0203 57.3464C30.1627 57.8543 29.1731 58.1083 28.0516 58.1083C26.93 58.1083 25.9405 57.8543 25.0828 57.3464C24.2252 56.8384 23.5786 56.1885 23.1432 55.3969C22.7144 54.5986 22.5 53.7377 22.5 52.8141C22.5 52.1214 22.6286 51.4583 22.8859 50.825C23.1432 50.1851 23.5028 49.6177 23.9646 49.1229C24.4264 48.6281 25.0102 48.2356 25.7161 47.9453C26.4286 47.6484 27.2071 47.5 28.0516 47.5C28.896 47.5 29.6712 47.6484 30.3771 47.9453C31.0896 48.2356 31.6767 48.6281 32.1385 49.1229C32.6003 49.6177 32.9599 50.1851 33.2172 50.825C33.4745 51.4583 33.6031 52.1214 33.6031 52.8141C33.6031 53.7377 33.3854 54.5986 32.95 55.3969C32.5212 56.1885 31.878 56.8384 31.0203 57.3464ZM29.7042 50.0927C29.2358 49.7892 28.6849 49.6375 28.0516 49.6375C27.4182 49.6375 26.8641 49.7892 26.3891 50.0927C25.9207 50.3962 25.571 50.7854 25.3401 51.2604C25.1092 51.7354 24.9937 52.2533 24.9937 52.8141C24.9937 53.6849 25.2675 54.4304 25.8151 55.0505C26.3627 55.6707 27.1082 55.9807 28.0516 55.9807C28.995 55.9807 29.7405 55.6707 30.288 55.0505C30.8356 54.4304 31.1094 53.6849 31.1094 52.8141C31.1094 52.2533 30.9939 51.7354 30.763 51.2604C30.5321 50.7854 30.1792 50.3962 29.7042 50.0927Z" fill="black"/>
  <path d="M13.0135 53.6651C13.0927 54.4568 13.383 55.0802 13.8844 55.5354C14.3858 55.9906 15.0752 56.2182 15.9526 56.2182C16.5595 56.2182 17.0939 56.1028 17.5557 55.8719C18.0175 55.6344 18.3738 55.3111 18.6245 54.9021H20.9995C20.63 55.8323 19.9901 56.6009 19.0797 57.2078C18.1759 57.8082 17.1335 58.1083 15.9526 58.1083C14.2637 58.1083 12.9311 57.6102 11.9547 56.6141C10.9849 55.6179 10.5 54.3446 10.5 52.7943C10.5 51.2637 10.9981 50.0003 11.9943 49.0042C12.9905 48.0014 14.267 47.5 15.824 47.5C17.3941 47.5 18.6707 47.9981 19.6536 48.9943C20.6432 49.9905 21.138 51.2703 21.138 52.8339V53.6651H13.0135ZM15.8734 49.3307C15.0752 49.3307 14.422 49.5682 13.9141 50.0432C13.4127 50.5116 13.1059 51.1582 12.9937 51.9828H18.7036C18.6245 51.1845 18.3342 50.5446 17.8328 50.063C17.3314 49.5748 16.6783 49.3307 15.8734 49.3307Z" fill="black"/>
  <path d="M0 43.75H2.63229V55.6349H9.09427V57.9406H0V43.75Z" fill="black"/>
</svg>