<svg width="228" height="40" viewBox="0 0 228 40" fill="none" xmlns="http://www.w3.org/2000/svg">
<path d="M0 0H10.901V25.4505V29.0842H14.5495H25.4505V40H0V0Z" fill="#634CFF"/>
<path d="M29.0835 40V14.5495V10.901H25.4499H14.5488V0H39.9993V40H29.0835Z" fill="#634CFF"/>
<path d="M14.5586 20.0106C14.5586 23.0208 16.9989 25.4611 20.0091 25.4611C23.0193 25.4611 25.4596 23.0208 25.4596 20.0106C25.4596 17.0003 23.0193 14.5601 20.0091 14.5601C16.9989 14.5601 14.5586 17.0003 14.5586 20.0106Z" fill="#634CFF"/>
<path d="M218.638 10.3264H222.893V15.3568H227.247V18.8698H222.893V26.5391C222.893 27.4187 223.074 28.0619 223.437 28.4688C223.811 28.8756 224.405 29.079 225.218 29.079C225.724 29.079 226.345 28.9746 227.082 28.7657V32.1797C226.807 32.3007 226.378 32.4051 225.796 32.4931C225.213 32.581 224.652 32.625 224.113 32.625C222.189 32.625 220.793 32.0863 219.924 31.0087C219.066 29.9312 218.638 28.3753 218.638 26.3412V18.8698H215.504V15.3568H218.638V10.3264Z" fill="black"/>
<path d="M200.381 25.2195C200.513 26.539 200.996 27.578 201.832 28.3367C202.668 29.0954 203.817 29.4747 205.279 29.4747C206.291 29.4747 207.181 29.2823 207.951 28.8975C208.721 28.5016 209.314 27.9629 209.732 27.2811H213.691C213.075 28.8315 212.008 30.1124 210.491 31.124C208.985 32.1246 207.247 32.6249 205.279 32.6249C202.464 32.6249 200.243 31.7947 198.616 30.1344C197 28.4741 196.191 26.352 196.191 23.7681C196.191 21.2172 197.022 19.1116 198.682 17.4513C200.342 15.78 202.47 14.9443 205.065 14.9443C207.682 14.9443 209.809 15.7745 211.447 17.4348C213.097 19.0951 213.921 21.2282 213.921 23.8341V25.2195H200.381ZM205.147 17.9956C203.817 17.9956 202.728 18.3914 201.882 19.1831C201.046 19.9637 200.535 21.0413 200.348 22.4157H209.864C209.732 21.0853 209.248 20.0187 208.413 19.216C207.577 18.4024 206.489 17.9956 205.147 17.9956Z" fill="black"/>
<path d="M188.324 32.2125V7.55542H192.579V32.2125H188.324Z" fill="black"/>
<path d="M179.418 32.2125V7.55542H183.673V32.2125H179.418Z" fill="black"/>
<path d="M174.75 15.3567V32.2126H170.676V29.3098C170.137 30.2554 169.324 31.0471 168.235 31.6848C167.146 32.3115 165.91 32.6249 164.524 32.6249C162.897 32.6249 161.429 32.2291 160.12 31.4374C158.812 30.6457 157.8 29.5792 157.086 28.2377C156.371 26.8963 156.014 25.4174 156.014 23.8011C156.014 22.1848 156.371 20.7059 157.086 19.3645C157.8 18.012 158.812 16.94 160.12 16.1483C161.429 15.3457 162.897 14.9443 164.524 14.9443C165.953 14.9443 167.212 15.2632 168.301 15.9009C169.401 16.5277 170.17 17.3138 170.61 18.2594V15.3567H174.75ZM161.687 20.0077C160.742 21.0413 160.269 22.3057 160.269 23.8011C160.269 25.2965 160.736 26.5554 161.671 27.578C162.616 28.6006 163.837 29.1119 165.332 29.1119C166.795 29.1119 168.021 28.6226 169.01 27.644C170 26.6654 170.495 25.3844 170.495 23.8011C170.495 22.2178 169.994 20.9313 168.994 19.9417C168.004 18.9521 166.784 18.4574 165.332 18.4574C163.848 18.4574 162.633 18.9741 161.687 20.0077Z" fill="black"/>
<path d="M146.53 25.6318L151.263 8.56152H155.651L148.394 32.2126H144.914L138.976 14.3506L133.022 32.2126H129.542L122.285 8.56152H126.672L131.406 25.6318L137.244 8.56152H140.691L146.53 25.6318Z" fill="black"/>
<path d="M108.001 31.3549C106.572 32.2016 104.923 32.6249 103.053 32.6249C101.184 32.6249 99.5349 32.2016 98.1055 31.3549C96.6761 30.5083 95.5985 29.4252 94.8728 28.1058C94.1581 26.7754 93.8008 25.3405 93.8008 23.8011C93.8008 22.6466 94.0152 21.5416 94.444 20.486C94.8728 19.4195 95.4721 18.4738 96.2418 17.6492C97.0114 16.8245 97.9845 16.1703 99.161 15.6865C100.349 15.1917 101.646 14.9443 103.053 14.9443C104.461 14.9443 105.753 15.1917 106.929 15.6865C108.117 16.1703 109.095 16.8245 109.865 17.6492C110.635 18.4738 111.234 19.4195 111.663 20.486C112.092 21.5416 112.306 22.6466 112.306 23.8011C112.306 25.3405 111.943 26.7754 111.217 28.1058C110.503 29.4252 109.431 30.5083 108.001 31.3549ZM105.808 19.2655C105.027 18.7597 104.109 18.5068 103.053 18.5068C101.998 18.5068 101.074 18.7597 100.283 19.2655C99.5019 19.7713 98.9191 20.42 98.5343 21.2117C98.1495 22.0034 97.957 22.8665 97.957 23.8011C97.957 25.2525 98.4133 26.495 99.326 27.5285C100.239 28.5621 101.481 29.0789 103.053 29.0789C104.626 29.0789 105.868 28.5621 106.781 27.5285C107.693 26.495 108.15 25.2525 108.15 23.8011C108.15 22.8665 107.957 22.0034 107.572 21.2117C107.188 20.42 106.599 19.7713 105.808 19.2655Z" fill="black"/>
<path d="M77.6717 25.2195C77.8036 26.539 78.2874 27.578 79.123 28.3367C79.9587 29.0954 81.1077 29.4747 82.5701 29.4747C83.5817 29.4747 84.4723 29.2823 85.242 28.8975C86.0116 28.5016 86.6054 27.9629 87.0232 27.2811H90.9816C90.3658 28.8315 89.2993 30.1124 87.7819 31.124C86.2755 32.1246 84.5383 32.6249 82.5701 32.6249C79.7553 32.6249 77.5342 31.7947 75.9069 30.1344C74.2906 28.4741 73.4824 26.352 73.4824 23.7681C73.4824 21.2172 74.3126 19.1116 75.9729 17.4513C77.6332 15.78 79.7608 14.9443 82.3557 14.9443C84.9726 14.9443 87.1002 15.7745 88.7385 17.4348C90.3878 19.0951 91.2125 21.2282 91.2125 23.8341V25.2195H77.6717ZM82.4382 17.9956C81.1077 17.9956 80.0192 18.3914 79.1725 19.1831C78.3369 19.9637 77.8256 21.0413 77.6387 22.4157H87.1552C87.0232 21.0853 86.5394 20.0187 85.7038 19.216C84.8681 18.4024 83.7796 17.9956 82.4382 17.9956Z" fill="black"/>
<path d="M56 8.56152H60.3872V28.3697H71.1571V32.2126H56V8.56152Z" fill="black"/>
</svg>
