<svg width="142" height="80" viewBox="0 0 142 80" fill="none">
  <path
    d="M0 0H12.0063V28.031V32.0331H16.0247H28.031V44.0556H0V0Z"
    fill="#634CFF"
  />
  <path
    d="M32.5289 44.0556V16.0247V12.0063H28.5268H16.5205V0H44.5515V44.0556H32.5289Z"
    fill="#634CFF"
  />
  <path
    d="M16.5205 22.5237C16.5205 25.8391 19.2082 28.5268 22.5237 28.5268C25.8391 28.5268 28.5268 25.8391 28.5268 22.5237C28.5268 19.2082 25.8391 16.5205 22.5237 16.5205C19.2082 16.5205 16.5205 19.2082 16.5205 22.5237Z"
    fill="#634CFF"
  />
  <path
    d="M134.756 61.2656H138.271V65.4209H141.867V68.3228H138.271V74.658C138.271 75.3846 138.42 75.9159 138.72 76.252C139.029 76.5881 139.519 76.7561 140.192 76.7561C140.609 76.7561 141.122 76.6698 141.731 76.4972V79.3174C141.504 79.4173 141.15 79.5036 140.668 79.5763C140.187 79.6489 139.724 79.6852 139.279 79.6852C137.689 79.6852 136.536 79.2402 135.818 78.3501C135.11 77.46 134.756 76.1748 134.756 74.4945V68.3228H132.167V65.4209H134.756V61.2656Z"
    fill="black"
  />
  <path
    d="M119.107 73.8832C119.216 74.9732 119.616 75.8315 120.306 76.4582C120.996 77.0849 121.945 77.3982 123.153 77.3982C123.989 77.3982 124.725 77.2393 125.36 76.9214C125.996 76.5944 126.487 76.1494 126.832 75.5862H130.102C129.593 76.8669 128.712 77.925 127.458 78.7606C126.214 79.5872 124.779 80.0004 123.153 80.0004C120.828 80.0004 118.993 79.3147 117.649 77.9432C116.314 76.5717 115.646 74.8188 115.646 72.6843C115.646 70.5772 116.332 68.8378 117.704 67.4664C119.075 66.0858 120.833 65.3955 122.976 65.3955C125.138 65.3955 126.895 66.0812 128.249 67.4527C129.611 68.8242 130.292 70.5862 130.292 72.7388V73.8832H119.107ZM123.044 67.9159C121.945 67.9159 121.046 68.2429 120.347 68.8969C119.656 69.5417 119.234 70.4318 119.08 71.5672H126.941C126.832 70.4682 126.432 69.5872 125.742 68.9241C125.052 68.252 124.152 67.9159 123.044 67.9159Z"
    fill="black"
  />
  <path d="M109.451 79.568V59.2002H112.966V79.568H109.451Z" fill="black" />
  <path d="M102.223 79.568V59.2002H105.738V79.568H102.223Z" fill="black" />
  <path
    d="M98.0813 65.7361V79.6598H94.7162V77.262C94.2712 78.0431 93.599 78.6971 92.6999 79.2238C91.8007 79.7416 90.7789 80.0004 89.6345 80.0004C88.2902 80.0004 87.0777 79.6734 85.9969 79.0195C84.916 78.3655 84.0804 77.4845 83.4901 76.3764C82.8997 75.2684 82.6045 74.0467 82.6045 72.7116C82.6045 71.3764 82.8997 70.1548 83.4901 69.0467C84.0804 67.9296 84.916 67.044 85.9969 66.3901C87.0777 65.727 88.2902 65.3955 89.6345 65.3955C90.8152 65.3955 91.8552 65.6589 92.7544 66.1857C93.6626 66.7034 94.2984 67.3528 94.6617 68.1339V65.7361H98.0813ZM87.2911 69.5781C86.51 70.4318 86.1195 71.4763 86.1195 72.7116C86.1195 73.9468 86.5055 74.9868 87.2775 75.8315C88.0586 76.6762 89.0668 77.0985 90.302 77.0985C91.51 77.0985 92.5227 76.6943 93.3402 75.886C94.1576 75.0776 94.5663 74.0195 94.5663 72.7116C94.5663 71.4037 94.1531 70.341 93.3266 69.5236C92.5091 68.7061 91.5009 68.2974 90.302 68.2974C89.0759 68.2974 88.0722 68.7243 87.2911 69.5781Z"
    fill="black"
  />
  <path
    d="M74.7528 74.3332L78.6629 60.2324H82.2869L76.2923 79.7692H73.4177L68.5131 65.0144L63.5948 79.7692H60.7201L54.7256 60.2324H58.3496L62.2596 74.3332L67.0825 60.2324H69.9299L74.7528 74.3332Z"
    fill="black"
  />
  <path
    d="M42.7068 78.9514C41.5261 79.6507 40.1637 80.0004 38.6196 80.0004C37.0756 80.0004 35.7132 79.6507 34.5324 78.9514C33.3517 78.252 32.4616 77.3574 31.8621 76.2674C31.2717 75.1684 30.9766 73.9832 30.9766 72.7116C30.9766 71.7579 31.1537 70.8451 31.5079 69.9732C31.8621 69.0921 32.3571 68.311 32.9929 67.6298C33.6287 66.9486 34.4325 66.4082 35.4044 66.0086C36.3853 65.5999 37.457 65.3955 38.6196 65.3955C39.7822 65.3955 40.8494 65.5999 41.8212 66.0086C42.8022 66.4082 43.6105 66.9486 44.2463 67.6298C44.8821 68.311 45.3771 69.0921 45.7313 69.9732C46.0856 70.8451 46.2627 71.7579 46.2627 72.7116C46.2627 73.9832 45.9629 75.1684 45.3635 76.2674C44.7731 77.3574 43.8876 78.252 42.7068 78.9514ZM40.8948 68.965C40.25 68.5472 39.4915 68.3383 38.6196 68.3383C37.7477 68.3383 36.9847 68.5472 36.3308 68.965C35.6859 69.3828 35.2045 69.9187 34.8866 70.5726C34.5688 71.2266 34.4098 71.9396 34.4098 72.7116C34.4098 73.9105 34.7867 74.9368 35.5406 75.7906C36.2945 76.6444 37.3208 77.0713 38.6196 77.0713C39.9184 77.0713 40.9448 76.6444 41.6986 75.7906C42.4525 74.9368 42.8294 73.9105 42.8294 72.7116C42.8294 71.9396 42.6705 71.2266 42.3526 70.5726C42.0347 69.9187 41.5488 69.3828 40.8948 68.965Z"
    fill="black"
  />
  <path
    d="M17.9165 73.8832C18.0255 74.9732 18.4252 75.8315 19.1155 76.4582C19.8057 77.0849 20.7549 77.3982 21.9629 77.3982C22.7985 77.3982 23.5342 77.2393 24.17 76.9214C24.8057 76.5944 25.2962 76.1494 25.6413 75.5862H28.9111C28.4025 76.8669 27.5215 77.925 26.268 78.7606C25.0237 79.5872 23.5887 80.0004 21.9629 80.0004C19.6377 80.0004 17.803 79.3147 16.4588 77.9432C15.1236 76.5717 14.4561 74.8188 14.4561 72.6843C14.4561 70.5772 15.1418 68.8378 16.5133 67.4664C17.8848 66.0858 19.6422 65.3955 21.7858 65.3955C23.9474 65.3955 25.7049 66.0812 27.0582 67.4527C28.4206 68.8242 29.1018 70.5862 29.1018 72.7388V73.8832H17.9165ZM21.8539 67.9159C20.7549 67.9159 19.8557 68.2429 19.1563 68.8969C18.466 69.5417 18.0437 70.4318 17.8893 71.5672H25.7503C25.6413 70.4682 25.2417 69.5872 24.5514 68.9241C23.8611 68.252 22.962 67.9159 21.8539 67.9159Z"
    fill="black"
  />
  <path
    d="M0 60.2324H3.62398V76.5948H12.5204V79.7692H0V60.2324Z"
    fill="black"
  />
</svg>