<svg xmlns="http://www.w3.org/2000/svg" width="16" height="16" viewBox="0 0 16 16" fill="none">
  <path d="M4 5.33317V4.6665C4 3.60564 4.42143 2.58822 5.17157 1.83808C5.92172 1.08793 6.93913 0.666504 8 0.666504C9.06087 0.666504 10.0783 1.08793 10.8284 1.83808C11.5786 2.58822 12 3.60564 12 4.6665V5.33317H13.3333C13.5101 5.33317 13.6797 5.40341 13.8047 5.52843C13.9298 5.65346 14 5.82303 14 5.99984V13.9998C14 14.1766 13.9298 14.3462 13.8047 14.4712C13.6797 14.5963 13.5101 14.6665 13.3333 14.6665H2.66667C2.48986 14.6665 2.32029 14.5963 2.19526 14.4712C2.07024 14.3462 2 14.1766 2 13.9998V5.99984C2 5.82303 2.07024 5.65346 2.19526 5.52843C2.32029 5.40341 2.48986 5.33317 2.66667 5.33317H4ZM12.6667 6.6665H3.33333V13.3332H12.6667V6.6665ZM7.33333 10.4878C7.07914 10.3411 6.88048 10.1146 6.76816 9.84338C6.65584 9.57221 6.63613 9.27156 6.7121 8.98804C6.78807 8.70453 6.95546 8.45401 7.18832 8.27533C7.42118 8.09665 7.70649 7.9998 8 7.9998C8.29351 7.9998 8.57882 8.09665 8.81168 8.27533C9.04454 8.45401 9.21193 8.70453 9.2879 8.98804C9.36387 9.27156 9.34416 9.57221 9.23184 9.84338C9.11952 10.1146 8.92086 10.3411 8.66667 10.4878V11.9998H7.33333V10.4878ZM5.33333 5.33317H10.6667V4.6665C10.6667 3.95926 10.3857 3.28098 9.88562 2.78089C9.38552 2.28079 8.70724 1.99984 8 1.99984C7.29276 1.99984 6.61448 2.28079 6.11438 2.78089C5.61428 3.28098 5.33333 3.95926 5.33333 4.6665V5.33317Z" fill="black"/>
</svg>