<svg width="16" height="16" viewBox="0 0 16 16">
  <path fillRule="evenodd" clipRule="evenodd" d="M7.99956 3.15155C5.74505 3.15155 3.85054 4.70001 3.31115 6.78786H2.06087C2.6245 4.02487 5.07294 1.93945 7.99956 1.93945C10.4535 1.93945 12.5674 3.40852 13.5189 5.51091L14.6661 4.36366V7.99996H11.0298L12.5862 6.44302C11.9365 4.53153 10.128 3.15155 7.99956 3.15155ZM7.99957 12.8484C10.2535 12.8484 12.148 11.2999 12.688 9.2121H13.9383C13.3746 11.9751 10.9262 14.0605 7.99957 14.0605C5.54567 14.0605 3.43176 12.5914 2.48026 10.489L1.33301 11.6363V8H4.96931L3.41297 9.55694C4.06266 11.4684 5.87112 12.8484 7.99957 12.8484Z"/>
</svg>