<svg width="180" height="180" viewBox="0 0 180 180" fill="none">
  <rect
    rx="90"
    width="180"
    height="180"
    fill="url(#paint0_linear_6564_2761)"
  />
  <path
    d="M70 76.6663V73.333C70 68.0287 72.1071 62.9416 75.8579 59.1909C79.6086 55.4401 84.6957 53.333 90 53.333C95.3043 53.333 100.391 55.4401 104.142 59.1909C107.893 62.9416 110 68.0287 110 73.333V76.6663H116.667C117.551 76.6663 118.399 77.0175 119.024 77.6427C119.649 78.2678 120 79.1156 120 79.9997V120C120 120.884 119.649 121.732 119.024 122.357C118.399 122.982 117.551 123.333 116.667 123.333H63.3333C62.4493 123.333 61.6014 122.982 60.9763 122.357C60.3512 121.732 60 120.884 60 120V79.9997C60 79.1156 60.3512 78.2678 60.9763 77.6427C61.6014 77.0175 62.4493 76.6663 63.3333 76.6663H70ZM113.333 83.333H66.6667V116.666H113.333V83.333ZM86.6667 102.44C85.3957 101.706 84.4024 100.573 83.8408 99.2174C83.2792 97.8615 83.1807 96.3583 83.5605 94.9407C83.9403 93.5232 84.7773 92.2705 85.9416 91.3771C87.1059 90.4838 88.5324 89.9995 90 89.9995C91.4676 89.9995 92.8941 90.4838 94.0584 91.3771C95.2227 92.2705 96.0597 93.5232 96.4395 94.9407C96.8193 96.3583 96.7208 97.8615 96.1592 99.2174C95.5976 100.573 94.6043 101.706 93.3333 102.44V110H86.6667V102.44ZM76.6667 76.6663H103.333V73.333C103.333 69.7968 101.929 66.4054 99.4281 63.9049C96.9276 61.4044 93.5362 59.9997 90 59.9997C86.4638 59.9997 83.0724 61.4044 80.5719 63.9049C78.0714 66.4054 76.6667 69.7968 76.6667 73.333V76.6663Z"
    fill="black"
  />
  <defs>
    <linearGradient
      id="paint0_linear_6564_2761"
      x1="90"
      y1="0"
      x2="90"
      y2="180"
      gradientUnits="userSpaceOnUse"
    >
      <stop stopColor="#F9F9F9" />
      <stop offset="1" stopColor="#F9F9F9" stopOpacity="0" />
    </linearGradient>
  </defs>
</svg>