<svg
  width="48" height="48" viewBox="0 0 48 48" fill="none">
  <rect width="48" height="48" rx="24" fill="#634CFF"/>
  <path d="M28.1663 20.6667C27.3205 20.6667 25.933 20.8525 24.833 21.3175V19C24.833 17.1292 21.3988 16.5 19.833 16.5C18.2672 16.5 14.833 17.1292 14.833 19V26.5C14.833 28.3708 18.2672 29 19.833 29C20.6838 29 22.0838 28.8117 23.1863 28.3417C23.3972 30.075 26.6513 30.6667 28.1663 30.6667C29.7322 30.6667 33.1663 30.0375 33.1663 28.1667V23.1667C33.1663 21.2958 29.7322 20.6667 28.1663 20.6667ZM28.1663 22.3333C29.6538 22.3333 31.0313 22.8292 31.428 23.1667C31.0305 23.505 29.653 24 28.1663 24C26.6797 24 25.3013 23.505 24.9047 23.1667C25.3022 22.8292 26.6788 22.3333 28.1663 22.3333ZM31.4997 25.585C31.2572 25.9192 29.7805 26.5 28.1663 26.5C26.5522 26.5 25.0755 25.9192 24.833 25.585V25.0167C25.933 25.4808 27.3205 25.6667 28.1663 25.6667C29.0122 25.6667 30.3997 25.4808 31.4997 25.0175V25.585ZM16.4997 23.3508C17.5997 23.8142 18.9872 24 19.833 24C20.6788 24 22.0663 23.8142 23.1663 23.3508V23.9192C22.9238 24.2525 21.4472 24.8333 19.833 24.8333C18.2188 24.8333 16.7422 24.2525 16.4997 23.9183V23.3508ZM16.4997 20.8508C17.5997 21.3142 18.9872 21.5 19.833 21.5C20.6788 21.5 22.0663 21.3142 23.1663 20.8508V21.4192C22.9238 21.7525 21.4472 22.3333 19.833 22.3333C18.2188 22.3333 16.7422 21.7525 16.4997 21.4183V20.8508ZM19.833 18.1667C21.3205 18.1667 22.698 18.6625 23.0947 19C22.698 19.3383 21.3197 19.8333 19.833 19.8333C18.3463 19.8333 16.9688 19.3383 16.5713 19C16.9688 18.6625 18.3455 18.1667 19.833 18.1667ZM16.4997 26.4275V25.8508C17.5997 26.3142 18.9872 26.5 19.833 26.5C20.6788 26.5 22.0663 26.3142 23.1663 25.8508V26.4275C22.9013 26.7625 21.4297 27.3333 19.833 27.3333C18.2363 27.3333 16.7647 26.7625 16.4997 26.4275ZM28.1663 29C26.5697 29 25.098 28.4292 24.833 28.0942V27.5175C25.933 27.9808 27.3205 28.1667 28.1663 28.1667C29.0122 28.1667 30.3997 27.9808 31.4997 27.5175V28.0942C31.2347 28.4292 29.763 29 28.1663 29Z" fill="white"/>
</svg>