<svg width="32" height="33" viewBox="0 0 32 33" fill="none" xmlns="http://www.w3.org/2000/svg">
<rect y="0.5" width="32" height="32" rx="16" fill="black"/>
<path d="M19.3337 13.8333C18.657 13.8333 17.547 13.982 16.667 14.354V12.5C16.667 11.0033 13.9197 10.5 12.667 10.5C11.4143 10.5 8.66699 11.0033 8.66699 12.5V18.5C8.66699 19.9967 11.4143 20.5 12.667 20.5C13.3477 20.5 14.4677 20.3493 15.3497 19.9733C15.5183 21.36 18.1217 21.8333 19.3337 21.8333C20.5863 21.8333 23.3337 21.33 23.3337 19.8333V15.8333C23.3337 14.3367 20.5863 13.8333 19.3337 13.8333ZM19.3337 15.1667C20.5237 15.1667 21.6257 15.5633 21.943 15.8333C21.625 16.104 20.523 16.5 19.3337 16.5C18.1443 16.5 17.0417 16.104 16.7243 15.8333C17.0423 15.5633 18.1437 15.1667 19.3337 15.1667ZM22.0003 17.768C21.8063 18.0353 20.625 18.5 19.3337 18.5C18.0423 18.5 16.861 18.0353 16.667 17.768V17.3133C17.547 17.6847 18.657 17.8333 19.3337 17.8333C20.0103 17.8333 21.1203 17.6847 22.0003 17.314V17.768ZM10.0003 15.9807C10.8803 16.3513 11.9903 16.5 12.667 16.5C13.3437 16.5 14.4537 16.3513 15.3337 15.9807V16.4353C15.1397 16.702 13.9583 17.1667 12.667 17.1667C11.3757 17.1667 10.1943 16.702 10.0003 16.4347V15.9807ZM10.0003 13.9807C10.8803 14.3513 11.9903 14.5 12.667 14.5C13.3437 14.5 14.4537 14.3513 15.3337 13.9807V14.4353C15.1397 14.702 13.9583 15.1667 12.667 15.1667C11.3757 15.1667 10.1943 14.702 10.0003 14.4347V13.9807ZM12.667 11.8333C13.857 11.8333 14.959 12.23 15.2763 12.5C14.959 12.7707 13.8563 13.1667 12.667 13.1667C11.4777 13.1667 10.3757 12.7707 10.0577 12.5C10.3757 12.23 11.477 11.8333 12.667 11.8333ZM10.0003 18.442V17.9807C10.8803 18.3513 11.9903 18.5 12.667 18.5C13.3437 18.5 14.4537 18.3513 15.3337 17.9807V18.442C15.1217 18.71 13.9443 19.1667 12.667 19.1667C11.3897 19.1667 10.2123 18.71 10.0003 18.442ZM19.3337 20.5C18.0563 20.5 16.879 20.0433 16.667 19.7753V19.314C17.547 19.6847 18.657 19.8333 19.3337 19.8333C20.0103 19.8333 21.1203 19.6847 22.0003 19.314V19.7753C21.7883 20.0433 20.611 20.5 19.3337 20.5Z" fill="white"/>
</svg>
