<svg width="80" height="80" viewBox="0 0 80 80" fill="none" xmlns="http://www.w3.org/2000/svg">
<path d="M42.8854 10.0005L74.6387 65.0005C74.9313 65.5072 75.0853 66.082 75.0853 66.6672C75.0853 67.2523 74.9313 67.8271 74.6387 68.3338C74.3462 68.8405 73.9254 69.2613 73.4187 69.5539C72.9119 69.8465 72.3371 70.0005 71.752 70.0005H8.24536C7.66024 70.0005 7.08544 69.8465 6.57872 69.5539C6.072 69.2613 5.65122 68.8405 5.35867 68.3338C5.06612 67.8271 4.91211 67.2523 4.91211 66.6672C4.91211 66.082 5.06613 65.5072 5.35869 65.0005L37.112 10.0005C37.4046 9.49381 37.8254 9.07306 38.3321 8.78052C38.8388 8.48799 39.4136 8.33398 39.9987 8.33398C40.5838 8.33398 41.1586 8.48799 41.6653 8.78052C42.172 9.07306 42.5928 9.49381 42.8854 10.0005ZM36.6654 53.3338V60.0005H43.332V53.3338H36.6654ZM36.6654 30.0005V46.6672H43.332V30.0005H36.6654Z" fill="black"/>
</svg>
