<svg width="25" height="24" viewBox="0 0 25 24" fill="none">
  <path d="M2.5498 13.0001H8.0268C8.19792 16.167 9.20735 19.2315 10.9518 21.8801C8.76674 21.5369 6.757 20.4793 5.23682 18.8726C3.71664 17.2659 2.77172 15.2008 2.5498 13.0001ZM2.5498 11.0001C2.77172 8.79942 3.71664 6.73429 5.23682 5.12763C6.757 3.52097 8.76674 2.46334 10.9518 2.12012C9.20735 4.76873 8.19792 7.83326 8.0268 11.0001H2.5498ZM22.4498 11.0001H16.9728C16.8017 7.83326 15.7923 4.76873 14.0478 2.12012C16.2329 2.46334 18.2426 3.52097 19.7628 5.12763C21.283 6.73429 22.2279 8.79942 22.4498 11.0001ZM22.4498 13.0001C22.2279 15.2008 21.283 17.2659 19.7628 18.8726C18.2426 20.4793 16.2329 21.5369 14.0478 21.8801C15.7923 19.2315 16.8017 16.167 16.9728 13.0001H22.4498ZM10.0298 13.0001H14.9698C14.8052 15.6996 13.9551 18.3126 12.4998 20.5921C11.0445 18.3126 10.1944 15.6996 10.0298 13.0001ZM10.0298 11.0001C10.1944 8.30063 11.0445 5.68768 12.4998 3.40812C13.9551 5.68768 14.8052 8.30063 14.9698 11.0001H10.0298Z" fill="#634CFF"/>
</svg>