<svg width="25" height="24" viewBox="0 0 25 24" fill="none">
  <path d="M10.454 2.20973C11.803 1.92686 13.1958 1.92618 14.545 2.20773C14.6349 2.80101 14.8574 3.36642 15.1958 3.86191C15.5343 4.3574 15.9801 4.77023 16.5 5.06973C17.0196 5.37026 17.6002 5.54979 18.1987 5.59498C18.7973 5.64017 19.3983 5.54984 19.957 5.33073C20.8753 6.35879 21.5709 7.56577 22 8.87573C21.5314 9.25031 21.1532 9.72568 20.8935 10.2665C20.6338 10.8074 20.4993 11.3998 20.5 11.9997C20.5 13.2637 21.086 14.3907 22.002 15.1237C21.5704 16.4326 20.8739 17.6386 19.956 18.6667C19.3974 18.4478 18.7966 18.3575 18.1983 18.4027C17.5999 18.4479 17.0195 18.6273 16.5 18.9277C15.9805 19.2271 15.5351 19.6397 15.1968 20.1348C14.8585 20.6299 14.6361 21.1949 14.546 21.7877C13.1973 22.0713 11.8044 22.0726 10.455 21.7917C10.3656 21.1979 10.1434 20.6319 9.80487 20.1359C9.46639 19.6398 9.02038 19.2265 8.50005 18.9267C7.98041 18.6264 7.39975 18.447 6.80124 18.402C6.20272 18.357 5.60176 18.4475 5.04305 18.6667C4.12465 17.6384 3.42905 16.431 3.00005 15.1207C3.46844 14.7464 3.84651 14.2713 4.10618 13.7308C4.36586 13.1904 4.50048 12.5983 4.50005 11.9987C4.50054 11.3986 4.36575 10.8061 4.10571 10.2652C3.84568 9.72439 3.46707 9.24911 2.99805 8.87473C3.42972 7.56585 4.12616 6.35983 5.04405 5.33173C5.6027 5.55068 6.20352 5.64092 6.80184 5.59574C7.40017 5.55055 7.98062 5.3711 8.50005 5.07073C9.01959 4.77132 9.46503 4.35875 9.80331 3.86363C10.1416 3.36852 10.364 2.80257 10.454 2.20973ZM12.5 14.9997C13.2957 14.9997 14.0588 14.6837 14.6214 14.121C15.184 13.5584 15.5 12.7954 15.5 11.9997C15.5 11.2041 15.184 10.441 14.6214 9.87841C14.0588 9.3158 13.2957 8.99973 12.5 8.99973C11.7044 8.99973 10.9413 9.3158 10.3787 9.87841C9.81612 10.441 9.50005 11.2041 9.50005 11.9997C9.50005 12.7954 9.81612 13.5584 10.3787 14.121C10.9413 14.6837 11.7044 14.9997 12.5 14.9997Z" fill="#634CFF"/>
</svg>